G04 #@! TF.FileFunction,Copper,L2,Bot,Signal*
%FSLAX46Y46*%
G04 Gerber Fmt 4.6, Leading zero omitted, Abs format (unit mm)*
G04 Created by KiCad (PCBNEW 4.0.2-stable) date 11/15/2016 3:30:08 PM*
%MOMM*%
G01*
G04 APERTURE LIST*
%ADD10C,0.100000*%
%ADD11R,2.600000X2.000000*%
%ADD12O,2.600000X2.000000*%
%ADD13C,0.600000*%
%ADD14C,0.750000*%
%ADD15C,0.254000*%
G04 APERTURE END LIST*
D10*
D11*
X130378200Y-89077800D03*
D12*
X130378200Y-91617800D03*
X130378200Y-94157800D03*
D13*
X162966400Y-95237300D03*
X164465000Y-95237300D03*
X163728400Y-95237300D03*
X162966400Y-90157300D03*
X164465000Y-90157300D03*
X163728400Y-90157300D03*
X197205600Y-95250000D03*
X195719700Y-95250000D03*
X196469000Y-95250000D03*
X195719700Y-90170000D03*
X197205600Y-90170000D03*
X196469000Y-90170000D03*
X179349400Y-90157300D03*
X180822600Y-90157300D03*
X180086000Y-90157300D03*
X180822600Y-95237300D03*
X179336700Y-95237300D03*
X180086000Y-95224600D03*
X156349700Y-92240100D03*
X147950000Y-93825000D03*
X134450000Y-91475000D03*
X140881100Y-89027000D03*
X142417800Y-89027000D03*
X141643100Y-89027000D03*
X199390000Y-93472000D03*
X199390000Y-91948000D03*
X199390000Y-92710000D03*
D14*
X143700500Y-86626700D02*
X198653400Y-86626700D01*
X142717799Y-88727001D02*
X142717799Y-87609401D01*
X142417800Y-89027000D02*
X142717799Y-88727001D01*
X142717799Y-87609401D02*
X143700500Y-86626700D01*
X199390000Y-87363300D02*
X199390000Y-91948000D01*
X198653400Y-86626700D02*
X199390000Y-87363300D01*
D15*
G36*
X142221410Y-87113012D02*
X142180242Y-87163130D01*
X142138569Y-87212794D01*
X142136792Y-87216026D01*
X142134447Y-87218881D01*
X142103800Y-87276039D01*
X142072566Y-87332854D01*
X142071449Y-87336375D01*
X142069706Y-87339626D01*
X142050750Y-87401625D01*
X142031139Y-87463447D01*
X142030728Y-87467113D01*
X142029648Y-87470645D01*
X142023094Y-87535172D01*
X142015867Y-87599600D01*
X142015817Y-87606813D01*
X142015803Y-87606950D01*
X142015815Y-87607078D01*
X142015799Y-87609401D01*
X142015799Y-88325000D01*
X140881100Y-88325000D01*
X140744747Y-88338369D01*
X140613589Y-88377969D01*
X140492619Y-88442289D01*
X140386447Y-88528881D01*
X140299116Y-88634447D01*
X140233952Y-88754964D01*
X140193438Y-88885843D01*
X140179117Y-89022099D01*
X140191534Y-89158542D01*
X140230217Y-89289974D01*
X140293691Y-89411389D01*
X140379540Y-89518164D01*
X140484493Y-89606230D01*
X140604553Y-89672233D01*
X140735146Y-89713660D01*
X140871299Y-89728932D01*
X140881100Y-89729000D01*
X142417800Y-89729000D01*
X142482317Y-89722674D01*
X142546934Y-89717021D01*
X142550478Y-89715991D01*
X142554153Y-89715631D01*
X142616228Y-89696889D01*
X142678500Y-89678797D01*
X142681779Y-89677097D01*
X142685311Y-89676031D01*
X142742545Y-89645599D01*
X142800137Y-89615747D01*
X142803022Y-89613444D01*
X142806281Y-89611711D01*
X142856514Y-89570742D01*
X142907211Y-89530271D01*
X142912348Y-89525204D01*
X142912453Y-89525119D01*
X142912533Y-89525022D01*
X142914189Y-89523389D01*
X143214188Y-89223390D01*
X143255338Y-89173294D01*
X143297029Y-89123608D01*
X143298807Y-89120373D01*
X143301151Y-89117520D01*
X143331787Y-89060384D01*
X143363032Y-89003548D01*
X143364149Y-89000027D01*
X143365892Y-88996776D01*
X143384844Y-88934789D01*
X143404459Y-88872955D01*
X143404870Y-88869287D01*
X143405950Y-88865756D01*
X143412504Y-88801235D01*
X143419731Y-88736802D01*
X143419781Y-88729589D01*
X143419795Y-88729452D01*
X143419783Y-88729324D01*
X143419799Y-88727001D01*
X143419799Y-87900179D01*
X143991278Y-87328700D01*
X198362622Y-87328700D01*
X198688000Y-87654078D01*
X198688000Y-93472000D01*
X198701369Y-93608353D01*
X198740969Y-93739511D01*
X198805289Y-93860481D01*
X198891881Y-93966653D01*
X198997447Y-94053984D01*
X199117964Y-94119148D01*
X199248843Y-94159662D01*
X199385099Y-94173983D01*
X199521542Y-94161566D01*
X199652974Y-94122883D01*
X199774389Y-94059409D01*
X199881164Y-93973560D01*
X199969230Y-93868607D01*
X200035233Y-93748547D01*
X200076660Y-93617954D01*
X200091932Y-93481801D01*
X200092000Y-93472000D01*
X200092000Y-87363300D01*
X200085674Y-87298783D01*
X200080021Y-87234166D01*
X200078991Y-87230622D01*
X200078631Y-87226947D01*
X200059889Y-87164872D01*
X200041797Y-87102600D01*
X200040097Y-87099321D01*
X200039031Y-87095789D01*
X200008599Y-87038555D01*
X199978747Y-86980963D01*
X199976444Y-86978078D01*
X199974711Y-86974819D01*
X199933722Y-86924562D01*
X199893271Y-86873890D01*
X199888206Y-86868753D01*
X199888119Y-86868647D01*
X199888021Y-86868566D01*
X199886389Y-86866911D01*
X199421478Y-86402000D01*
X201988000Y-86402000D01*
X201988000Y-96508000D01*
X126592000Y-96508000D01*
X126592000Y-89484550D01*
X128443200Y-89484550D01*
X128443200Y-90140342D01*
X128467603Y-90263023D01*
X128515470Y-90378585D01*
X128584963Y-90482589D01*
X128673411Y-90571037D01*
X128777415Y-90640530D01*
X128892977Y-90688397D01*
X129015658Y-90712800D01*
X129105000Y-90712800D01*
X128970195Y-90875751D01*
X128847016Y-91103567D01*
X128770432Y-91350970D01*
X128743360Y-91608536D01*
X128766833Y-91866455D01*
X128839955Y-92114903D01*
X128959942Y-92344416D01*
X129122223Y-92546253D01*
X129320617Y-92712726D01*
X129547567Y-92837493D01*
X129706808Y-92888007D01*
X129564648Y-92930927D01*
X129335977Y-93052514D01*
X129135278Y-93216200D01*
X128970195Y-93415751D01*
X128847016Y-93643567D01*
X128770432Y-93890970D01*
X128743360Y-94148536D01*
X128766833Y-94406455D01*
X128839955Y-94654903D01*
X128959942Y-94884416D01*
X129122223Y-95086253D01*
X129320617Y-95252726D01*
X129547567Y-95377493D01*
X129794429Y-95455802D01*
X130051800Y-95484671D01*
X130070328Y-95484800D01*
X130686072Y-95484800D01*
X130943821Y-95459527D01*
X131191752Y-95384673D01*
X131420423Y-95263086D01*
X131621122Y-95099400D01*
X131786205Y-94899849D01*
X131909384Y-94672033D01*
X131985968Y-94424630D01*
X132013040Y-94167064D01*
X131989567Y-93909145D01*
X131916445Y-93660697D01*
X131796458Y-93431184D01*
X131634177Y-93229347D01*
X131435783Y-93062874D01*
X131208833Y-92938107D01*
X131049592Y-92887593D01*
X131191752Y-92844673D01*
X131420423Y-92723086D01*
X131621122Y-92559400D01*
X131786205Y-92359849D01*
X131909384Y-92132033D01*
X131985968Y-91884630D01*
X132013040Y-91627064D01*
X131989567Y-91369145D01*
X131916445Y-91120697D01*
X131796458Y-90891184D01*
X131653034Y-90712800D01*
X131740742Y-90712800D01*
X131863423Y-90688397D01*
X131978985Y-90640530D01*
X132082989Y-90571037D01*
X132171437Y-90482589D01*
X132240930Y-90378585D01*
X132288797Y-90263023D01*
X132313200Y-90140342D01*
X132313200Y-89484550D01*
X132154450Y-89325800D01*
X130626200Y-89325800D01*
X130626200Y-89345800D01*
X130130200Y-89345800D01*
X130130200Y-89325800D01*
X128601950Y-89325800D01*
X128443200Y-89484550D01*
X126592000Y-89484550D01*
X126592000Y-88015258D01*
X128443200Y-88015258D01*
X128443200Y-88671050D01*
X128601950Y-88829800D01*
X130130200Y-88829800D01*
X130130200Y-87601550D01*
X130626200Y-87601550D01*
X130626200Y-88829800D01*
X132154450Y-88829800D01*
X132313200Y-88671050D01*
X132313200Y-88015258D01*
X132288797Y-87892577D01*
X132240930Y-87777015D01*
X132171437Y-87673011D01*
X132082989Y-87584563D01*
X131978985Y-87515070D01*
X131863423Y-87467203D01*
X131740742Y-87442800D01*
X130784950Y-87442800D01*
X130626200Y-87601550D01*
X130130200Y-87601550D01*
X129971450Y-87442800D01*
X129015658Y-87442800D01*
X128892977Y-87467203D01*
X128777415Y-87515070D01*
X128673411Y-87584563D01*
X128584963Y-87673011D01*
X128515470Y-87777015D01*
X128467603Y-87892577D01*
X128443200Y-88015258D01*
X126592000Y-88015258D01*
X126592000Y-86402000D01*
X142932422Y-86402000D01*
X142221410Y-87113012D01*
X142221410Y-87113012D01*
G37*
X142221410Y-87113012D02*
X142180242Y-87163130D01*
X142138569Y-87212794D01*
X142136792Y-87216026D01*
X142134447Y-87218881D01*
X142103800Y-87276039D01*
X142072566Y-87332854D01*
X142071449Y-87336375D01*
X142069706Y-87339626D01*
X142050750Y-87401625D01*
X142031139Y-87463447D01*
X142030728Y-87467113D01*
X142029648Y-87470645D01*
X142023094Y-87535172D01*
X142015867Y-87599600D01*
X142015817Y-87606813D01*
X142015803Y-87606950D01*
X142015815Y-87607078D01*
X142015799Y-87609401D01*
X142015799Y-88325000D01*
X140881100Y-88325000D01*
X140744747Y-88338369D01*
X140613589Y-88377969D01*
X140492619Y-88442289D01*
X140386447Y-88528881D01*
X140299116Y-88634447D01*
X140233952Y-88754964D01*
X140193438Y-88885843D01*
X140179117Y-89022099D01*
X140191534Y-89158542D01*
X140230217Y-89289974D01*
X140293691Y-89411389D01*
X140379540Y-89518164D01*
X140484493Y-89606230D01*
X140604553Y-89672233D01*
X140735146Y-89713660D01*
X140871299Y-89728932D01*
X140881100Y-89729000D01*
X142417800Y-89729000D01*
X142482317Y-89722674D01*
X142546934Y-89717021D01*
X142550478Y-89715991D01*
X142554153Y-89715631D01*
X142616228Y-89696889D01*
X142678500Y-89678797D01*
X142681779Y-89677097D01*
X142685311Y-89676031D01*
X142742545Y-89645599D01*
X142800137Y-89615747D01*
X142803022Y-89613444D01*
X142806281Y-89611711D01*
X142856514Y-89570742D01*
X142907211Y-89530271D01*
X142912348Y-89525204D01*
X142912453Y-89525119D01*
X142912533Y-89525022D01*
X142914189Y-89523389D01*
X143214188Y-89223390D01*
X143255338Y-89173294D01*
X143297029Y-89123608D01*
X143298807Y-89120373D01*
X143301151Y-89117520D01*
X143331787Y-89060384D01*
X143363032Y-89003548D01*
X143364149Y-89000027D01*
X143365892Y-88996776D01*
X143384844Y-88934789D01*
X143404459Y-88872955D01*
X143404870Y-88869287D01*
X143405950Y-88865756D01*
X143412504Y-88801235D01*
X143419731Y-88736802D01*
X143419781Y-88729589D01*
X143419795Y-88729452D01*
X143419783Y-88729324D01*
X143419799Y-88727001D01*
X143419799Y-87900179D01*
X143991278Y-87328700D01*
X198362622Y-87328700D01*
X198688000Y-87654078D01*
X198688000Y-93472000D01*
X198701369Y-93608353D01*
X198740969Y-93739511D01*
X198805289Y-93860481D01*
X198891881Y-93966653D01*
X198997447Y-94053984D01*
X199117964Y-94119148D01*
X199248843Y-94159662D01*
X199385099Y-94173983D01*
X199521542Y-94161566D01*
X199652974Y-94122883D01*
X199774389Y-94059409D01*
X199881164Y-93973560D01*
X199969230Y-93868607D01*
X200035233Y-93748547D01*
X200076660Y-93617954D01*
X200091932Y-93481801D01*
X200092000Y-93472000D01*
X200092000Y-87363300D01*
X200085674Y-87298783D01*
X200080021Y-87234166D01*
X200078991Y-87230622D01*
X200078631Y-87226947D01*
X200059889Y-87164872D01*
X200041797Y-87102600D01*
X200040097Y-87099321D01*
X200039031Y-87095789D01*
X200008599Y-87038555D01*
X199978747Y-86980963D01*
X199976444Y-86978078D01*
X199974711Y-86974819D01*
X199933722Y-86924562D01*
X199893271Y-86873890D01*
X199888206Y-86868753D01*
X199888119Y-86868647D01*
X199888021Y-86868566D01*
X199886389Y-86866911D01*
X199421478Y-86402000D01*
X201988000Y-86402000D01*
X201988000Y-96508000D01*
X126592000Y-96508000D01*
X126592000Y-89484550D01*
X128443200Y-89484550D01*
X128443200Y-90140342D01*
X128467603Y-90263023D01*
X128515470Y-90378585D01*
X128584963Y-90482589D01*
X128673411Y-90571037D01*
X128777415Y-90640530D01*
X128892977Y-90688397D01*
X129015658Y-90712800D01*
X129105000Y-90712800D01*
X128970195Y-90875751D01*
X128847016Y-91103567D01*
X128770432Y-91350970D01*
X128743360Y-91608536D01*
X128766833Y-91866455D01*
X128839955Y-92114903D01*
X128959942Y-92344416D01*
X129122223Y-92546253D01*
X129320617Y-92712726D01*
X129547567Y-92837493D01*
X129706808Y-92888007D01*
X129564648Y-92930927D01*
X129335977Y-93052514D01*
X129135278Y-93216200D01*
X128970195Y-93415751D01*
X128847016Y-93643567D01*
X128770432Y-93890970D01*
X128743360Y-94148536D01*
X128766833Y-94406455D01*
X128839955Y-94654903D01*
X128959942Y-94884416D01*
X129122223Y-95086253D01*
X129320617Y-95252726D01*
X129547567Y-95377493D01*
X129794429Y-95455802D01*
X130051800Y-95484671D01*
X130070328Y-95484800D01*
X130686072Y-95484800D01*
X130943821Y-95459527D01*
X131191752Y-95384673D01*
X131420423Y-95263086D01*
X131621122Y-95099400D01*
X131786205Y-94899849D01*
X131909384Y-94672033D01*
X131985968Y-94424630D01*
X132013040Y-94167064D01*
X131989567Y-93909145D01*
X131916445Y-93660697D01*
X131796458Y-93431184D01*
X131634177Y-93229347D01*
X131435783Y-93062874D01*
X131208833Y-92938107D01*
X131049592Y-92887593D01*
X131191752Y-92844673D01*
X131420423Y-92723086D01*
X131621122Y-92559400D01*
X131786205Y-92359849D01*
X131909384Y-92132033D01*
X131985968Y-91884630D01*
X132013040Y-91627064D01*
X131989567Y-91369145D01*
X131916445Y-91120697D01*
X131796458Y-90891184D01*
X131653034Y-90712800D01*
X131740742Y-90712800D01*
X131863423Y-90688397D01*
X131978985Y-90640530D01*
X132082989Y-90571037D01*
X132171437Y-90482589D01*
X132240930Y-90378585D01*
X132288797Y-90263023D01*
X132313200Y-90140342D01*
X132313200Y-89484550D01*
X132154450Y-89325800D01*
X130626200Y-89325800D01*
X130626200Y-89345800D01*
X130130200Y-89345800D01*
X130130200Y-89325800D01*
X128601950Y-89325800D01*
X128443200Y-89484550D01*
X126592000Y-89484550D01*
X126592000Y-88015258D01*
X128443200Y-88015258D01*
X128443200Y-88671050D01*
X128601950Y-88829800D01*
X130130200Y-88829800D01*
X130130200Y-87601550D01*
X130626200Y-87601550D01*
X130626200Y-88829800D01*
X132154450Y-88829800D01*
X132313200Y-88671050D01*
X132313200Y-88015258D01*
X132288797Y-87892577D01*
X132240930Y-87777015D01*
X132171437Y-87673011D01*
X132082989Y-87584563D01*
X131978985Y-87515070D01*
X131863423Y-87467203D01*
X131740742Y-87442800D01*
X130784950Y-87442800D01*
X130626200Y-87601550D01*
X130130200Y-87601550D01*
X129971450Y-87442800D01*
X129015658Y-87442800D01*
X128892977Y-87467203D01*
X128777415Y-87515070D01*
X128673411Y-87584563D01*
X128584963Y-87673011D01*
X128515470Y-87777015D01*
X128467603Y-87892577D01*
X128443200Y-88015258D01*
X126592000Y-88015258D01*
X126592000Y-86402000D01*
X142932422Y-86402000D01*
X142221410Y-87113012D01*
M02*
