M48
;DRILL file {KiCad 4.0.2-stable} date 11/15/2016 3:30:16 PM
;FORMAT={-:-/ absolute / inch / decimal}
FMAT,2
INCH,TZ
T1C0.016
T2C0.047
%
G90
G05
M72
T1
X5.2933Y-3.6014
X5.5465Y-3.505
X5.5765Y-3.505
X5.607Y-3.505
X5.8248Y-3.6939
X6.1555Y-3.6315
X6.416Y-3.5495
X6.416Y-3.7495
X6.446Y-3.5495
X6.446Y-3.7495
X6.475Y-3.5495
X6.475Y-3.7495
X7.0605Y-3.7495
X7.061Y-3.5495
X7.09Y-3.5495
X7.09Y-3.749
X7.119Y-3.5495
X7.119Y-3.7495
X7.7055Y-3.55
X7.7055Y-3.75
X7.735Y-3.55
X7.735Y-3.75
X7.764Y-3.55
X7.764Y-3.75
X7.85Y-3.62
X7.85Y-3.65
X7.85Y-3.68
T2
X5.133Y-3.507
X5.133Y-3.607
X5.133Y-3.707
T0
M30
